PathFileType	4	(X/Y/Z)	OpenSim_Sub03_CSStiffKnee_Gyro.trc
DataRate	CameraRate	NumFrames	NumMarkers	Units	OrigDataRate	OrigDataStartFrame	OrigNumFrames
100	100	38	8	m	100	910	3637
Frame#	Time	torso_imu_offset_imu	pelvis_imu_offset_imu	tibia_r_imu_offset_imu	femur_r_imu_offset_imu	tibia_l_imu_offset_imu	femur_l_imu_offset_imu	toes_r_imu_offset_imu	toes_l_imu_offset_imu
				X1	Y1	Z1	X2	Y2	Z2	X3	Y3	Z3	X4	Y4	Z4	X5	Y5	Z5	X6	Y6	Z6	X7	Y7	Z7	X8		Y8	Z8	

910	9.09000000	-0.74363900	0.08512400	-0.08646100	-0.24760200	0.03830000	0.41094900	-2.44787000	-0.61423800	-0.17523600	0.33288400	-0.05678800	1.69381600	0.12928100	-0.23594700	0.50585300	0.66102200	-0.18634500	0.99204100	-0.63646700	-0.38958400	-0.78742100	0.00353100	-0.41702800	0.06635500
911	9.10000000	-0.71186100	0.03405100	-0.08889200	-0.17529600	0.02358300	0.52368800	-1.10298800	-0.37159000	0.08178500	0.15895600	-0.00553000	1.77798800	0.13490700	-0.21700600	0.44272200	0.84851600	-0.22323300	0.92963400	-0.84276400	0.00800200	-0.26447600	-0.02215100	-0.46290500	0.12917000
912	9.11000000	-0.73175800	-0.01777700	-0.09287800	-0.11767200	0.03018200	0.62317700	0.12625900	-0.39079800	0.34624000	-0.01563900	0.00258100	1.81397100	0.30831600	-0.19750200	0.41028200	0.96538000	-0.22862400	0.86438000	-0.77916100	0.26044700	0.27033800	-0.05029800	-0.48035800	0.17495300
913	9.12000000	-0.71355000	-0.08061300	-0.07991400	-0.09714300	0.02701600	0.69236300	0.47665400	-0.37737400	0.85150900	-0.02471500	0.03033500	1.78641700	0.48276600	-0.18707900	0.45195100	0.98745300	-0.20985400	0.81221000	-0.60993200	0.42796600	0.80357700	-0.04636600	-0.51769200	0.21855800
914	9.13000000	-0.70574800	-0.13524400	-0.06581000	-0.09034600	0.04978600	0.71081800	0.60589700	-0.15708400	1.20444000	0.13346800	0.03781800	1.69935500	0.47926800	-0.15590000	0.47916700	0.94097600	-0.16759400	0.77829500	-0.60119800	0.62535700	1.34343000	-0.02580500	-0.54089200	0.23124300
915	9.14000000	-0.69282600	-0.18094800	-0.05150500	-0.08134500	0.07058400	0.67804800	0.77100300	0.00768100	1.54435600	0.41006900	0.04873200	1.61546500	0.41152000	-0.15630200	0.50882400	0.93891100	-0.14112300	0.73798900	-0.63569300	0.85624200	1.78143900	-0.04564200	-0.55691700	0.21667800
916	9.15000000	-0.68798300	-0.21100000	-0.02207900	-0.05572900	0.08741400	0.60976200	0.84505700	0.12744400	1.85212700	0.68814500	0.03246100	1.47533900	0.34071000	-0.11866200	0.52191400	0.88901600	-0.15381500	0.67045000	-0.60061500	1.11515700	2.04222500	-0.03464800	-0.55249500	0.18812100
917	9.16000000	-0.66145300	-0.23653400	0.04267500	-0.02383800	0.09308700	0.51665000	0.85336600	0.26189800	2.11866300	0.96231000	0.01881200	1.35874700	0.27038700	-0.12950500	0.55356900	0.78100800	-0.16349000	0.63037500	-0.58401600	1.40141300	2.14532800	-0.01603900	-0.56132100	0.14295100
918	9.17000000	-0.63350100	-0.25793600	0.10511900	-0.00535700	0.11322200	0.42976300	0.78061100	0.39790300	2.35564700	1.19298000	0.00157800	1.27605800	0.25963500	-0.10369500	0.59194000	0.66698600	-0.13806200	0.60943600	-0.60395400	1.70416200	2.11991200	0.02311600	-0.54546900	0.10361300
919	9.18000000	-0.59651400	-0.27083000	0.15075900	0.00049400	0.13632400	0.33858000	0.68229900	0.53019400	2.57577600	1.38598300	-0.01493600	1.23323800	0.25616100	-0.11579700	0.61274000	0.57421300	-0.12506400	0.59910600	-0.62223100	2.01107800	2.00856800	0.01772800	-0.51229700	0.07554700
920	9.19000000	-0.55476900	-0.28801800	0.18589200	0.00479200	0.15697000	0.28025400	0.51816200	0.63084900	2.77127400	1.53829200	-0.02948700	1.20558800	0.19504800	-0.08681400	0.60624500	0.45413300	-0.11587700	0.59312200	-0.63094700	2.30372700	1.84012400	0.02901700	-0.47833500	0.06818100
921	9.20000000	-0.51888300	-0.29498500	0.19086000	0.00708700	0.16167200	0.22953000	0.34767500	0.73208200	2.95278800	1.60052100	-0.03393700	1.16554300	0.12509400	-0.08777700	0.57966600	0.25010900	-0.09844600	0.62551700	-0.66713100	2.59857200	1.67707100	0.02255400	-0.41876500	0.04978500
922	9.21000000	-0.47841900	-0.30781300	0.17427800	-0.01264100	0.17160500	0.21444300	0.13649300	0.84113000	3.11699700	1.56346900	-0.05095600	1.10708500	0.09047000	-0.06148600	0.55154300	0.07682800	-0.10244500	0.70068700	-0.74140500	2.86326000	1.54693600	0.01527400	-0.33491900	0.05188200
923	9.22000000	-0.43029700	-0.30795500	0.15547100	-0.02727200	0.17747400	0.20405000	-0.12758000	0.88368100	3.25181200	1.41590600	-0.08368400	1.01673000	0.13290000	-0.02358900	0.51088300	-0.01595000	-0.12875400	0.77617900	-0.79562400	3.08642300	1.44063900	0.02403200	-0.24310000	0.04688700
924	9.23000000	-0.39431500	-0.30804200	0.13995200	-0.04068700	0.19979600	0.19458100	-0.27735500	0.92602400	3.40349400	1.21334000	-0.12098100	0.91025300	0.17679100	0.00619000	0.47227000	-0.03401700	-0.14092300	0.85175600	-0.81249700	3.26391700	1.37549200	0.00625100	-0.15759000	0.05348300
925	9.24000000	-0.35607600	-0.31527400	0.12948600	-0.04305200	0.22872500	0.18580000	-0.24623100	0.97448300	3.60820900	1.01751000	-0.15145000	0.82597300	0.19345100	0.01258800	0.39166000	-0.00910500	-0.15286300	0.93157300	-0.81192300	3.40915400	1.36783300	-0.00218300	-0.06457200	0.06227000
926	9.25000000	-0.31987100	-0.32586200	0.12283400	-0.03277400	0.26047500	0.18870400	-0.01686300	1.01038600	3.74151900	0.82758500	-0.17202800	0.67174100	0.21565400	-0.01789800	0.35712800	0.04035400	-0.16810800	0.98734800	-0.78682100	3.51489400	1.43869500	0.00144200	-0.00298100	0.07332400
927	9.26000000	-0.28481300	-0.33514800	0.11223900	0.00911000	0.30043400	0.18333900	0.32295100	1.06321200	3.86958800	0.66827900	-0.17292000	0.60466400	0.29974600	-0.00406900	0.32175900	0.11783000	-0.16033600	1.03257100	-0.73645400	3.57383500	1.60119000	0.01773100	0.05277700	0.07900100
928	9.27000000	-0.24697900	-0.33800600	0.09610800	0.04791500	0.34584200	0.17894200	0.59910200	1.11867100	3.97375400	0.48024300	-0.16633700	0.46455600	0.32935800	-0.00161600	0.30779000	0.20996900	-0.15847400	1.05368700	-0.67203300	3.58667300	1.85882100	0.00143900	0.08265900	0.07782000
929	9.28000000	-0.22155800	-0.33136400	0.08828400	0.09361300	0.38889100	0.15326800	0.80414400	1.17946500	4.03634200	0.35378200	-0.18176100	0.36914500	0.34418100	0.04884000	0.27858000	0.26036500	-0.17267700	1.06187600	-0.59318100	3.55519400	2.17623800	0.00093500	0.12637700	0.09049100
930	9.29000000	-0.19328000	-0.31890700	0.09648600	0.14537800	0.40570200	0.14805000	0.97243600	1.25311300	4.06237400	0.19673200	-0.19398500	0.27990500	0.32290700	0.07771100	0.29271700	0.28904800	-0.13900100	1.06619500	-0.47483300	3.49520500	2.49701100	-0.00037800	0.14829000	0.08470000
931	9.30000000	-0.15440400	-0.29495800	0.09766700	0.18463600	0.39854100	0.12376800	1.08523000	1.32803200	4.02958200	0.03496300	-0.20775700	0.15085500	0.31976800	0.10130200	0.31601300	0.30116000	-0.13434700	1.04041000	-0.31356300	3.42592300	2.79002400	0.01414000	0.18836700	0.08769100
932	9.31000000	-0.12550400	-0.27524100	0.09903500	0.21545600	0.38868900	0.10963700	1.19416100	1.44986300	3.93378300	-0.08794500	-0.18324300	0.02543500	0.27286900	0.07509400	0.32846600	0.29511800	-0.10702000	1.03076700	-0.21194700	3.22818000	2.99197500	-0.00960600	0.21182500	0.10670600
933	9.32000000	-0.09077700	-0.25972700	0.09697300	0.23967900	0.37820500	0.10326500	1.22837500	1.60501400	3.79462400	-0.15953300	-0.13388700	-0.09398900	0.27448400	0.08563800	0.30452200	0.29410900	-0.09477600	1.04094000	-0.21570900	2.87477100	3.04768400	-0.00540100	0.22537800	0.13376600
934	9.33000000	-0.06090200	-0.23881900	0.10313100	0.25001700	0.36803100	0.08227900	1.12800500	1.59696300	3.73201800	-0.11522500	-0.09876600	-0.18611100	0.21840400	0.06167400	0.32084600	0.23065500	-0.08547300	1.05293500	-0.20340100	2.50221900	2.93376800	-0.02263700	0.20056900	0.15623200
935	9.34000000	-0.02669600	-0.22996800	0.10335900	0.28132600	0.38489700	0.06136000	1.09863000	1.54146000	3.64075800	0.08469600	-0.08485200	-0.24951100	0.26002800	0.06416700	0.33537700	0.13890000	-0.10614500	1.07909100	-0.11776200	2.17450500	2.68737500	-0.01553600	0.18794400	0.16778900
936	9.35000000	0.01268000	-0.23782400	0.10856800	0.29318300	0.39814200	0.03290900	0.97436400	1.47569200	3.43490700	0.40447000	-0.08328500	-0.27834300	0.26614100	0.07873300	0.34853300	0.03239500	-0.11548700	1.09289800	0.00082400	1.96068900	2.37876300	-0.01239000	0.13081500	0.16547000
937	9.36000000	0.05198500	-0.24332400	0.11494400	0.28312700	0.33936800	0.01718500	0.83267400	1.38975800	3.14844000	0.80669200	-0.09870800	-0.24986300	0.25960200	0.09518000	0.36568300	-0.01829800	-0.09903700	1.10464000	0.08643300	1.97718700	2.10061000	-0.01267800	0.05922900	0.17109700
938	9.37000000	0.08910900	-0.24572600	0.12132200	0.29338500	0.25096100	0.00074100	0.87633700	1.33896800	2.80769900	1.20838600	-0.11351800	-0.21726100	0.23307600	0.10993300	0.43477100	-0.08412400	-0.07964100	1.09114500	0.03277600	1.99727400	1.82738800	0.00583400	-0.00760400	0.13807900
939	9.38000000	0.11727500	-0.27298200	0.13264200	0.31154400	0.19857100	0.01969800	0.70184500	1.06834000	2.49864700	1.52593300	-0.21815400	-0.16902900	0.18207100	0.12693700	0.53030700	-0.12122500	-0.05531800	1.03511900	-0.01147700	1.91209200	1.50550800	0.03052800	-0.07690700	0.12690900
940	9.39000000	0.12434400	-0.31037000	0.15586800	0.32432700	0.19457900	0.04445700	0.57614300	0.87022900	2.10227000	1.78891800	-0.29110600	-0.08078800	0.14578300	0.14574700	0.59961500	-0.09988200	-0.04087000	0.98094900	0.08977200	1.77336400	1.14668000	0.02332100	-0.14231900	0.10246300
941	9.40000000	0.13786100	-0.33200200	0.16676400	0.33690000	0.19483800	0.06725500	0.55026700	0.71111800	1.63473800	1.83360800	-0.34940700	-0.01896300	0.09849700	0.17043500	0.67049200	-0.10075800	-0.03647700	0.90565700	0.25108700	1.51797500	0.80094800	0.01347700	-0.21737600	0.10733200
942	9.41000000	0.14408200	-0.34142800	0.17323800	0.34691200	0.20920500	0.10402200	0.46291700	0.43035800	1.19541300	1.56377900	-0.45607500	0.08079700	0.09377700	0.18033700	0.75652000	-0.07508100	-0.00345400	0.83712700	0.31839800	1.14576200	0.50253800	-0.00734400	-0.30638500	0.11790700
943	9.42000000	0.14466900	-0.33554600	0.17531100	0.34591100	0.22451600	0.12122700	0.41185500	0.17273300	0.74534700	1.08621700	-0.51221400	0.13712700	0.12993700	0.20682300	0.83744100	-0.01712700	0.00683500	0.77334500	0.28715500	0.73782400	0.28275200	-0.00940000	-0.39513800	0.14183000
944	9.43000000	0.14755700	-0.32190000	0.15776100	0.34265800	0.20429100	0.11367700	0.44580500	-0.03825000	0.26253300	0.67925100	-0.47622900	0.14509600	0.22017600	0.22866200	0.89542200	0.00032800	0.00337600	0.71548900	0.27459500	0.28218300	0.12035000	-0.01529400	-0.48328600	0.16154400
945	9.44000000	0.15496300	-0.28506000	0.15150400	0.36939000	0.16999400	0.11291300	0.54431100	-0.24606600	-0.19752400	0.46322500	-0.40446600	0.12949100	0.32414700	0.25258500	0.94245100	0.03996900	0.01913000	0.69942200	0.33814800	-0.25416800	0.02133400	0.00027400	-0.58889900	0.17561600
946	9.45000000	0.15789400	-0.22842900	0.12662800	0.40916300	0.18326400	0.09635600	0.63762700	-0.43494200	-0.58764600	0.41750300	-0.33876600	0.10560400	0.44409900	0.31277700	0.98968100	0.15090000	0.06106200	0.69190100	0.72305100	-1.02687200	-0.11376900	0.04473200	-0.68251600	0.14052000
947	9.46000000	0.17272700	-0.16871200	0.10634700	0.47911100	0.19324300	0.08653700	0.72678800	-0.65060300	-0.99422200	0.34837100	-0.32555600	0.08549100	0.52550200	0.37814000	1.06213900	0.25554600	0.08160800	0.68202600	1.28069800	-1.80743400	-0.26088200	0.14105000	-0.78854900	0.08073600
